<svg width="10" height="17" viewBox="0 0 10 17" fill="none" xmlns="http://www.w3.org/2000/svg">
<path fill-rule="evenodd" clip-rule="evenodd" d="M0.551295 9.45155C0.32633 9.22652 0.199951 8.92135 0.199951 8.60315C0.199951 8.28495 0.32633 7.97978 0.551295 7.75475L7.33969 0.966352C7.45039 0.85174 7.5828 0.760321 7.72921 0.69743C7.87561 0.63454 8.03308 0.601436 8.19241 0.600051C8.35175 0.598667 8.50976 0.629029 8.65724 0.689366C8.80472 0.749703 8.9387 0.838807 9.05137 0.951478C9.16404 1.06415 9.25314 1.19813 9.31348 1.34561C9.37382 1.49308 9.40418 1.6511 9.4028 1.81043C9.40141 1.96977 9.36831 2.12723 9.30542 2.27364C9.24253 2.42004 9.15111 2.55246 9.0365 2.66315L3.09649 8.60315L9.0365 14.5432C9.25508 14.7695 9.37604 15.0726 9.3733 15.3872C9.37057 15.7019 9.24437 16.0028 9.02188 16.2253C8.79939 16.4478 8.49841 16.574 8.18378 16.5768C7.86914 16.5795 7.56602 16.4585 7.33969 16.24L0.551295 9.45155Z" fill="white"/>
</svg>
