<svg width="19" height="19" viewBox="0 0 19 19" fill="none" xmlns="http://www.w3.org/2000/svg">
<path d="M5.18207 0.675926C5.18207 0.496659 5.11086 0.324735 4.98409 0.197974C4.85733 0.0712134 4.68541 0 4.50614 0C4.32688 0 4.15495 0.0712134 4.02819 0.197974C3.90143 0.324735 3.83022 0.496659 3.83022 0.675926V2.09988C2.53244 2.20352 1.68167 2.45767 1.05622 3.08402C0.429858 3.70948 0.17571 4.56115 0.071167 5.85802H17.9535C17.8489 4.56025 17.5948 3.70948 16.9684 3.08402C16.343 2.45767 15.4913 2.20352 14.1944 2.09898V0.675926C14.1944 0.496659 14.1232 0.324735 13.9964 0.197974C13.8697 0.0712134 13.6978 0 13.5185 0C13.3392 0 13.1673 0.0712134 13.0405 0.197974C12.9138 0.324735 12.8426 0.496659 12.8426 0.675926V2.03949C12.2432 2.02778 11.5709 2.02778 10.8148 2.02778H7.20985C6.45371 2.02778 5.78139 2.02778 5.18207 2.03949V0.675926Z" fill="white"/>
<path fill-rule="evenodd" clip-rule="evenodd" d="M0 9.23765C0 8.48151 1.00721e-08 7.80919 0.0117161 7.20987H18.013C18.0247 7.80919 18.0247 8.48151 18.0247 9.23765V11.0401C18.0247 14.4387 18.0247 16.1384 16.9684 17.1937C15.9131 18.25 14.2134 18.25 10.8148 18.25H7.20988C3.81132 18.25 2.11159 18.25 1.05625 17.1937C-1.07436e-07 16.1384 0 14.4387 0 11.0401V9.23765ZM13.5185 11.0401C13.7575 11.0401 13.9868 10.9452 14.1558 10.7762C14.3248 10.6071 14.4198 10.3779 14.4198 10.1389C14.4198 9.89986 14.3248 9.67063 14.1558 9.50161C13.9868 9.3326 13.7575 9.23765 13.5185 9.23765C13.2795 9.23765 13.0503 9.3326 12.8812 9.50161C12.7122 9.67063 12.6173 9.89986 12.6173 10.1389C12.6173 10.3779 12.7122 10.6071 12.8812 10.7762C13.0503 10.9452 13.2795 11.0401 13.5185 11.0401ZM13.5185 14.6451C13.7575 14.6451 13.9868 14.5501 14.1558 14.3811C14.3248 14.2121 14.4198 13.9828 14.4198 13.7438C14.4198 13.5048 14.3248 13.2756 14.1558 13.1065C13.9868 12.9375 13.7575 12.8426 13.5185 12.8426C13.2795 12.8426 13.0503 12.9375 12.8812 13.1065C12.7122 13.2756 12.6173 13.5048 12.6173 13.7438C12.6173 13.9828 12.7122 14.2121 12.8812 14.3811C13.0503 14.5501 13.2795 14.6451 13.5185 14.6451ZM9.91358 10.1389C9.91358 10.3779 9.81863 10.6071 9.64961 10.7762C9.4806 10.9452 9.25137 11.0401 9.01235 11.0401C8.77332 11.0401 8.54409 10.9452 8.37508 10.7762C8.20606 10.6071 8.11111 10.3779 8.11111 10.1389C8.11111 9.89986 8.20606 9.67063 8.37508 9.50161C8.54409 9.3326 8.77332 9.23765 9.01235 9.23765C9.25137 9.23765 9.4806 9.3326 9.64961 9.50161C9.81863 9.67063 9.91358 9.89986 9.91358 10.1389ZM9.91358 13.7438C9.91358 13.9828 9.81863 14.2121 9.64961 14.3811C9.4806 14.5501 9.25137 14.6451 9.01235 14.6451C8.77332 14.6451 8.54409 14.5501 8.37508 14.3811C8.20606 14.2121 8.11111 13.9828 8.11111 13.7438C8.11111 13.5048 8.20606 13.2756 8.37508 13.1065C8.54409 12.9375 8.77332 12.8426 9.01235 12.8426C9.25137 12.8426 9.4806 12.9375 9.64961 13.1065C9.81863 13.2756 9.91358 13.5048 9.91358 13.7438ZM4.50617 11.0401C4.74519 11.0401 4.97443 10.9452 5.14344 10.7762C5.31246 10.6071 5.40741 10.3779 5.40741 10.1389C5.40741 9.89986 5.31246 9.67063 5.14344 9.50161C4.97443 9.3326 4.74519 9.23765 4.50617 9.23765C4.26715 9.23765 4.03792 9.3326 3.8689 9.50161C3.69989 9.67063 3.60494 9.89986 3.60494 10.1389C3.60494 10.3779 3.69989 10.6071 3.8689 10.7762C4.03792 10.9452 4.26715 11.0401 4.50617 11.0401ZM4.50617 14.6451C4.74519 14.6451 4.97443 14.5501 5.14344 14.3811C5.31246 14.2121 5.40741 13.9828 5.40741 13.7438C5.40741 13.5048 5.31246 13.2756 5.14344 13.1065C4.97443 12.9375 4.74519 12.8426 4.50617 12.8426C4.26715 12.8426 4.03792 12.9375 3.8689 13.1065C3.69989 13.2756 3.60494 13.5048 3.60494 13.7438C3.60494 13.9828 3.69989 14.2121 3.8689 14.3811C4.03792 14.5501 4.26715 14.6451 4.50617 14.6451Z" fill="white"/>
</svg>
