<svg width="23" height="23" viewBox="0 0 23 23" fill="none" xmlns="http://www.w3.org/2000/svg">
<path d="M7.90625 20.125C8.70016 20.125 9.34375 19.4814 9.34375 18.6875C9.34375 17.8936 8.70016 17.25 7.90625 17.25C7.11234 17.25 6.46875 17.8936 6.46875 18.6875C6.46875 19.4814 7.11234 20.125 7.90625 20.125Z" fill="white"/>
<path d="M17.9688 20.125C18.7627 20.125 19.4062 19.4814 19.4062 18.6875C19.4062 17.8936 18.7627 17.25 17.9688 17.25C17.1748 17.25 16.5312 17.8936 16.5312 18.6875C16.5312 19.4814 17.1748 20.125 17.9688 20.125Z" fill="white"/>
<path d="M20.5203 5.42566C20.4193 5.30215 20.2921 5.20267 20.1479 5.13445C20.0037 5.06623 19.8461 5.03098 19.6866 5.03125H6.01459L5.73922 3.46887C5.70986 3.30244 5.62279 3.15169 5.49332 3.04308C5.36384 2.93448 5.20024 2.87496 5.03125 2.875H2.15625C1.96563 2.875 1.78281 2.95073 1.64802 3.08552C1.51323 3.22031 1.4375 3.40313 1.4375 3.59375C1.4375 3.78437 1.51323 3.96719 1.64802 4.10198C1.78281 4.23677 1.96563 4.3125 2.15625 4.3125H4.4284L6.47953 15.9374C6.50889 16.1038 6.59596 16.2546 6.72543 16.3632C6.85491 16.4718 7.01851 16.5313 7.1875 16.5312H18.6875C18.8781 16.5312 19.0609 16.4555 19.1957 16.3207C19.3305 16.1859 19.4062 16.0031 19.4062 15.8125C19.4062 15.6219 19.3305 15.4391 19.1957 15.3043C19.0609 15.1695 18.8781 15.0938 18.6875 15.0938H7.79035L7.53699 13.6562H18.3928C18.6421 13.6559 18.8836 13.5695 19.0764 13.4116C19.2693 13.2537 19.4017 13.034 19.4512 12.7897L20.7449 6.32096C20.7761 6.16441 20.7721 6.00288 20.7333 5.84806C20.6944 5.69323 20.6217 5.54896 20.5203 5.42566Z" fill="white"/>
</svg>
